<svg xmlns="http://www.w3.org/2000/svg" xmlns:xlink="http://www.w3.org/1999/xlink" version="1.1" x="0px" y="0px" viewBox="0 0 32 40" style="enable-background:new 0 0 32 32;" xml:space="preserve"><g><path d="M29.495,32H2.504C1.124,32,0,30.876,0,29.495V16c0-0.552,0.448-1,1-1s1,0.448,1,1v13.495C2,29.773,2.226,30,2.504,30   h26.991C29.773,30,30,29.773,30,29.495V16c0-0.552,0.447-1,1-1s1,0.448,1,1v13.495C32,30.876,30.876,32,29.495,32z"/><path d="M16,23.818c-0.265,0-0.52-0.105-0.707-0.293L9.838,18.07c-0.391-0.391-0.391-1.023,0-1.414s1.023-0.391,1.414,0L16,21.404   l4.747-4.748c0.391-0.391,1.023-0.391,1.414,0s0.391,1.023,0,1.414l-5.454,5.455C16.52,23.713,16.265,23.818,16,23.818z"/><path d="M16,23.818c-0.552,0-1-0.447-1-1V1c0-0.552,0.448-1,1-1s1,0.448,1,1v21.818C17,23.371,16.552,23.818,16,23.818z"/></g></svg>