<svg xmlns="http://www.w3.org/2000/svg" viewBox="0 0 32 40" enable-background="new 0 0 32 32" x="0px" y="0px"><g><path d="M28.504 32h-25.008c-1.928 0-3.496-1.568-3.496-3.496v-25.008c0-1.928 1.568-3.496 3.496-3.496h3.504c.552 0 1 .448 1 1s-.448 1-1 1h-3.504c-.825 0-1.496.671-1.496 1.496v25.008c0 .825.671 1.496 1.496 1.496h25.008c.825 0 1.496-.671 1.496-1.496v-25.008c0-.825-.671-1.496-1.496-1.496h-3.504c-.553 0-1-.448-1-1s.447-1 1-1h3.504c1.928 0 3.496 1.568 3.496 3.496v25.008c0 1.928-1.568 3.496-3.496 3.496zM20.49 21.032c-.304 0-.605-.092-.865-.274l-3.625-2.537-3.625 2.538c-.462.324-1.061.363-1.562.103-.502-.261-.813-.774-.813-1.34v-18.013c0-.832.677-1.509 1.509-1.509h8.982c.832 0 1.509.677 1.509 1.509v18.013c0 .565-.312 1.078-.812 1.339-.221.115-.459.171-.698.171zm-4.49-4.918c.303 0 .605.09.863.27l3.137 2.195v-16.579h-8v16.579l3.134-2.194c.26-.181.563-.271.866-.271z"/></g></svg>