<svg xmlns="http://www.w3.org/2000/svg" xmlns:xlink="http://www.w3.org/1999/xlink" version="1.1" x="0px" y="0px" viewBox="0 0 32 40" style="enable-background:new 0 0 32 32;" xml:space="preserve"><g><path d="M16.007,21.999c-0.552,0-0.999-0.446-1-0.999c-0.001-0.552,0.446-1,0.999-1.001c2.199-0.003,3.991-1.795,3.994-3.994   c0.001-0.552,0.448-0.999,1-0.999H21c0.553,0.001,1,0.449,0.999,1.001c-0.005,3.298-2.692,5.986-5.991,5.991   C16.008,21.999,16.007,21.999,16.007,21.999z"/><path d="M12.464,20.535c-0.256,0-0.512-0.098-0.707-0.293C10.624,19.109,10,17.604,10,16c0-3.309,2.691-6,6-6   c1.604,0,3.109,0.624,4.242,1.757c0.391,0.391,0.391,1.024,0,1.415c-0.391,0.39-1.023,0.39-1.414,0C18.073,12.416,17.068,12,16,12   c-2.206,0-4,1.794-4,4c0,1.068,0.416,2.073,1.171,2.828c0.391,0.391,0.391,1.023,0,1.414C12.977,20.438,12.72,20.535,12.464,20.535   z"/><path d="M4,29c-0.256,0-0.512-0.098-0.707-0.293c-0.391-0.391-0.391-1.023,0-1.414l24-24c0.391-0.391,1.023-0.391,1.414,0   s0.391,1.023,0,1.414l-24,24C4.512,28.902,4.256,29,4,29z"/><path d="M8.807,24.149c-0.156,0-0.314-0.036-0.462-0.114c-2.691-1.407-5.3-3.573-7.754-6.438c-0.792-0.925-0.792-2.268,0-3.193   C5.365,8.828,10.55,6,16,6c2.566,0,5.121,0.65,7.593,1.932c0.49,0.254,0.681,0.858,0.427,1.348   c-0.254,0.491-0.858,0.68-1.349,0.427C20.487,8.574,18.243,8,16,8c-4.839,0-9.513,2.592-13.892,7.705   c-0.144,0.168-0.144,0.422,0,0.591c2.288,2.671,4.697,4.679,7.162,5.968c0.489,0.256,0.679,0.859,0.423,1.35   C9.515,23.954,9.167,24.149,8.807,24.149z"/><path d="M16,26c-1.135,0-2.278-0.128-3.398-0.38c-0.539-0.121-0.877-0.656-0.756-1.195c0.122-0.539,0.657-0.874,1.195-0.756   C14.017,23.889,15.013,24,16,24c4.84,0,9.513-2.592,13.891-7.705c0.145-0.168,0.145-0.422,0.001-0.59   c-1.311-1.531-2.674-2.855-4.053-3.938c-0.434-0.341-0.51-0.97-0.168-1.404c0.341-0.434,0.968-0.51,1.404-0.169   c1.481,1.164,2.939,2.58,4.335,4.21c0.792,0.925,0.792,2.268-0.001,3.193C26.635,23.173,21.45,26,16,26z"/></g></svg>