<svg xmlns="http://www.w3.org/2000/svg" xmlns:xlink="http://www.w3.org/1999/xlink" version="1.1" x="0px" y="0px" viewBox="0 0 32 40" style="enable-background:new 0 0 32 32;" xml:space="preserve"><g><path d="M16.003,31.001c-0.915,0-1.772-0.355-2.417-1L2.364,18.778C0.84,17.254,0,15.227,0,13.071c0-4.994,4.153-8.084,8-8.084   c2.225,0,4.223,0.822,5.778,2.377L16,9.586l2.222-2.222C19.777,5.809,21.775,4.987,24,4.987c3.848,0,8,3.091,8,8.084   c0,2.156-0.84,4.183-2.364,5.707L18.413,30.001C17.77,30.645,16.914,31,16.003,31.001z M8,6.987c-2.886,0-6,2.326-6,6.084   c0,1.622,0.631,3.146,1.778,4.293l11.223,11.223c0.532,0.533,1.462,0.535,1.998,0l11.223-11.223C29.368,16.217,30,14.693,30,13.071   c0-3.758-3.114-6.084-6-6.084c-1.174,0-2.884,0.311-4.364,1.792l-2.929,2.929c-0.391,0.391-1.023,0.391-1.414,0l-2.929-2.929   C10.883,7.298,9.174,6.987,8,6.987z"/></g></svg>