<svg xmlns="http://www.w3.org/2000/svg" xmlns:xlink="http://www.w3.org/1999/xlink" version="1.1" x="0px" y="0px" viewBox="0 0 32 40" style="enable-background:new 0 0 32 32;" xml:space="preserve"><g><path d="M16,23c-2.206,0-4-1.794-4-4c0-2.206,1.794-4,4-4c0.384,0,0.763,0.054,1.127,0.161c0.529,0.156,0.833,0.711,0.677,1.241   c-0.155,0.53-0.712,0.832-1.241,0.678C16.382,17.027,16.193,17,16,17c-1.103,0-2,0.897-2,2s0.897,2,2,2c1.103,0,2-0.897,2-2   c0-0.553,0.447-1,1-1s1,0.447,1,1C20,21.206,18.206,23,16,23z"/><path d="M16,28c-7.424,0-13.824-3.465-15.926-8.623c-0.098-0.241-0.098-0.513,0-0.754C2.176,13.465,8.576,10,16,10   c7.425,0,13.825,3.465,15.926,8.623c0.099,0.241,0.099,0.513,0,0.754C29.825,24.535,23.425,28,16,28z M2.091,19   C4.035,23.141,9.674,26,16,26s11.966-2.859,13.908-7c-1.942-4.141-7.582-7-13.908-7S4.035,14.859,2.091,19z"/><path d="M16,28c-4.962,0-9-4.037-9-9c0-4.962,4.038-9,9-9c4.963,0,9,4.038,9,9C25,23.963,20.963,28,16,28z M16,12   c-3.86,0-7,3.14-7,7c0,3.859,3.14,7,7,7c3.859,0,7-3.141,7-7C23,15.14,19.859,12,16,12z"/><path d="M1.001,11c-0.303,0-0.602-0.137-0.798-0.397c-0.333-0.44-0.247-1.067,0.194-1.4C4.833,5.848,10.374,4,16,4   s11.167,1.848,15.604,5.202c0.44,0.333,0.527,0.96,0.194,1.401c-0.334,0.44-0.96,0.527-1.401,0.195C26.306,7.704,21.192,6,16,6   C10.807,6,5.694,7.704,1.603,10.797C1.423,10.934,1.211,11,1.001,11z"/></g></svg>