<svg xmlns="http://www.w3.org/2000/svg" xmlns:xlink="http://www.w3.org/1999/xlink" version="1.1" x="0px" y="0px" viewBox="0 0 32 40" style="enable-background:new 0 0 32 32;" xml:space="preserve"><g><path d="M4,32c-2.206,0-4-1.794-4-4s1.794-4,4-4s4,1.794,4,4S6.206,32,4,32z M4,26c-1.103,0-2,0.897-2,2s0.897,2,2,2s2-0.897,2-2   S5.103,26,4,26z"/><path d="M31,29c-0.553,0-1-0.447-1-1C30,13.664,18.337,2,4,2C3.448,2,3,1.552,3,1s0.448-1,1-1c15.439,0,28,12.561,28,28   C32,28.553,31.553,29,31,29z"/><path d="M25,29c-0.553,0-1-0.447-1-1C24,16.972,15.028,8,4,8C3.448,8,3,7.552,3,7s0.448-1,1-1c12.131,0,22,9.869,22,22   C26,28.553,25.553,29,25,29z"/><path d="M19,29c-0.553,0-1-0.447-1-1c0-7.72-6.28-14-14-14c-0.552,0-1-0.448-1-1s0.448-1,1-1c8.822,0,16,7.178,16,16   C20,28.553,19.553,29,19,29z"/><path d="M13,29c-0.552,0-1-0.447-1-1c0-4.411-3.589-8-8-8c-0.552,0-1-0.447-1-1s0.448-1,1-1c5.514,0,10,4.486,10,10   C14,28.553,13.552,29,13,29z"/></g></svg>