<svg xmlns="http://www.w3.org/2000/svg" xmlns:xlink="http://www.w3.org/1999/xlink" version="1.1" x="0px" y="0px" viewBox="0 0 32 40" style="enable-background:new 0 0 32 32;" xml:space="preserve"><g><path d="M13.501,32.012c-0.591,0-1.167-0.21-1.624-0.6C11.32,30.937,11,30.242,11,29.509v-9.067c0-0.097-0.028-0.19-0.08-0.271   L0.396,3.807c-0.49-0.758-0.526-1.724-0.094-2.519S1.566,0,2.471,0h27.059c0.905,0,1.736,0.494,2.169,1.289   c0.432,0.795,0.395,1.761-0.098,2.521L21.079,20.17C21.027,20.25,21,20.345,21,20.441v8.275c0,1.237-0.887,2.277-2.109,2.472   l-4.997,0.792l0,0C13.763,32.002,13.631,32.012,13.501,32.012z M2.471,2C2.22,2,2.1,2.171,2.06,2.245   C2.02,2.318,1.941,2.512,2.078,2.723l10.525,16.365C12.862,19.492,13,19.961,13,20.441v9.067c0,0.202,0.11,0.326,0.176,0.383   c0.065,0.056,0.203,0.141,0.404,0.114l4.997-0.792C18.821,29.175,19,28.966,19,28.717v-8.275c0-0.48,0.137-0.947,0.396-1.353   L29.921,2.725c0.133-0.206,0.069-0.389,0.02-0.48C29.901,2.171,29.781,2,29.529,2H2.471z"/></g></svg>