<svg xmlns="http://www.w3.org/2000/svg" xmlns:xlink="http://www.w3.org/1999/xlink" version="1.1" x="0px" y="0px" viewBox="0 0 32 40" style="enable-background:new 0 0 32 32;" xml:space="preserve"><g><path d="M16,32C7.178,32,0,24.822,0,16S7.178,0,16,0s16,7.178,16,16S24.822,32,16,32z M16,2C8.28,2,2,8.28,2,16s6.28,14,14,14   s14-6.28,14-14S23.72,2,16,2z"/><path d="M22,16c-0.256,0-0.512-0.098-0.707-0.293L16,10.414l-5.293,5.293c-0.391,0.391-1.023,0.391-1.414,0s-0.391-1.023,0-1.414   l6-6c0.391-0.391,1.023-0.391,1.414,0l6,6c0.391,0.391,0.391,1.023,0,1.414C22.512,15.902,22.256,16,22,16z"/><path d="M16,24c-0.552,0-1-0.447-1-1V9c0-0.552,0.448-1,1-1s1,0.448,1,1v14C17,23.553,16.552,24,16,24z"/></g></svg>