<svg xmlns="http://www.w3.org/2000/svg" xmlns:xlink="http://www.w3.org/1999/xlink" version="1.1" x="0px" y="0px" viewBox="0 0 32 40" style="enable-background:new 0 0 32 32;" xml:space="preserve"><g><path d="M12,24C5.383,24,0,18.617,0,12C0,5.383,5.383,0,12,0c6.617,0,12,5.383,12,12C24,18.617,18.617,24,12,24z M12,2   C6.486,2,2,6.486,2,12c0,5.514,4.486,10,10,10c5.514,0,10-4.486,10-10C22,6.486,17.514,2,12,2z"/><path d="M31,32c-0.256,0-0.512-0.098-0.707-0.293L19.384,20.798c-0.391-0.391-0.391-1.023,0-1.414s1.023-0.391,1.414,0   l10.909,10.909c0.391,0.391,0.391,1.023,0,1.414C31.512,31.902,31.256,32,31,32z"/></g></svg>