<svg xmlns="http://www.w3.org/2000/svg" xmlns:xlink="http://www.w3.org/1999/xlink" version="1.1" x="0px" y="0px" viewBox="0 0 32 40" style="enable-background:new 0 0 32 32;" xml:space="preserve"><g><path d="M30.12,28H1.88C0.844,28,0,27.156,0,26.12V5.88C0,4.844,0.844,4,1.88,4h28.24C31.156,4,32,4.844,32,5.88v20.24   C32,27.156,31.156,28,30.12,28z M2,26h28V6H2V26z"/><path d="M16,18.079c-0.475,0-0.949-0.112-1.381-0.336L0.541,10.456C0.05,10.202-0.142,9.598,0.112,9.108   c0.254-0.491,0.857-0.683,1.348-0.429l14.079,7.288c0.291,0.151,0.635,0.151,0.923,0L30.54,8.679   c0.492-0.256,1.094-0.062,1.348,0.429c0.254,0.49,0.062,1.094-0.428,1.348l-14.079,7.288C16.949,17.967,16.475,18.079,16,18.079z"/></g></svg>