<svg xmlns="http://www.w3.org/2000/svg" xmlns:xlink="http://www.w3.org/1999/xlink" version="1.1" x="0px" y="0px" viewBox="0 0 32 40" style="enable-background:new 0 0 32 32;" xml:space="preserve"><g><path d="M31,32c-0.553,0-1-0.447-1-1v-2.265c0-1.418-0.961-2.649-2.337-2.994l-6.771-1.692c-1.019-0.255-1.73-1.143-1.905-2.374   c-0.007-0.05-0.01-0.101-0.01-0.15l0.012-1.166c0-0.042,0.004-0.083,0.009-0.125c0.175-1.286,0.802-2.602,1.721-3.608   c2.422-2.655,2.422-4.693,2.422-7.273c0-4.049-3.145-7.279-7.158-7.352c-3.977,0.073-7.121,3.303-7.121,7.352   c0,2.58,0,4.618,2.422,7.273c0.954,1.045,1.567,2.408,1.683,3.739l0.016,1.244c0,0.037-0.001,0.074-0.005,0.11   c-0.12,1.179-0.835,2.071-1.868,2.33l-6.772,1.692C2.961,26.086,2,27.317,2,28.735V31c0,0.553-0.448,1-1,1s-1-0.447-1-1v-2.265   c0-2.338,1.584-4.366,3.852-4.934l6.771-1.692c0.259-0.065,0.336-0.392,0.358-0.546l-0.011-1.103   c-0.075-0.825-0.5-1.761-1.164-2.488c-2.945-3.227-2.945-5.847-2.945-8.621c0-5.15,4.006-9.258,9.121-9.352   c5.151,0.094,9.158,4.202,9.158,9.352c0,2.773,0,5.394-2.945,8.621c-0.627,0.688-1.075,1.607-1.207,2.472l-0.01,1.016   c0.035,0.193,0.138,0.584,0.399,0.649l6.771,1.692C30.416,24.369,32,26.397,32,28.735V31C32,31.553,31.553,32,31,32z"/></g></svg>