<svg xmlns="http://www.w3.org/2000/svg" xmlns:xlink="http://www.w3.org/1999/xlink" version="1.1" x="0px" y="0px" viewBox="0 0 32 40" style="enable-background:new 0 0 32 32;" xml:space="preserve"><g><path d="M29.634,26.546H8.521c-0.763,0-1.482-0.371-1.925-0.992l-6.409-8.973c-0.249-0.348-0.249-0.814,0-1.162l6.41-8.974   c0.443-0.62,1.162-0.99,1.924-0.99h21.113C30.938,5.455,32,6.516,32,7.82V24.18C32,25.484,30.938,26.546,29.634,26.546z M2.229,16   l5.995,8.393c0.069,0.097,0.18,0.153,0.297,0.153h21.113c0.202,0,0.366-0.164,0.366-0.366V7.82c0-0.202-0.164-0.366-0.366-0.366   H8.521c-0.118,0-0.229,0.057-0.296,0.152L2.229,16z"/><path d="M14,21c-0.256,0-0.512-0.098-0.707-0.293c-0.391-0.391-0.391-1.023,0-1.414l8-8c0.391-0.391,1.023-0.391,1.414,0   s0.391,1.023,0,1.414l-8,8C14.512,20.902,14.256,21,14,21z"/><path d="M22,21c-0.256,0-0.512-0.098-0.707-0.293l-8-8c-0.391-0.391-0.391-1.023,0-1.414s1.023-0.391,1.414,0l8,8   c0.391,0.391,0.391,1.023,0,1.414C22.512,20.902,22.256,21,22,21z"/></g></svg>