<svg xmlns="http://www.w3.org/2000/svg" xmlns:xlink="http://www.w3.org/1999/xlink" version="1.1" x="0px" y="0px" viewBox="0 0 32 40" style="enable-background:new 0 0 32 32;" xml:space="preserve"><g><path d="M29.64,24.163c-0.385,0-0.77-0.097-1.123-0.289C25.866,22.427,20.586,20,15,20c-0.552,0-1-0.447-1-1s0.448-1,1-1   c6.029,0,11.657,2.58,14.476,4.118c0.146,0.082,0.28,0.03,0.344-0.008C29.887,22.07,30,21.976,30,21.795V2.405   c0-0.17-0.1-0.263-0.16-0.303c-0.059-0.04-0.183-0.096-0.339-0.032c-0.333,0.138-0.7,0.294-1.098,0.465   C25.367,3.833,20.286,6.006,15,6.006c-0.552,0-1-0.448-1-1c0-0.579,0.512-1.049,1.078-1c4.848-0.021,9.473-2,12.538-3.311   c0.406-0.174,0.781-0.334,1.121-0.475c0.733-0.302,1.562-0.219,2.215,0.219C31.608,0.879,32,1.613,32,2.405v19.39   c0,0.844-0.434,1.604-1.161,2.035C30.466,24.052,30.053,24.163,29.64,24.163z"/><path d="M18.728,10.176c-0.553,0-1-0.448-1-1s0.447-1,1-1c4.639,0,7.491-2.453,7.52-2.478c0.414-0.36,1.045-0.324,1.41,0.089   c0.365,0.413,0.328,1.042-0.084,1.408C27.437,7.317,24.158,10.176,18.728,10.176z"/><path d="M15,20H3.501C1.57,20,0,18.43,0,16.499V7.501C0,5.57,1.57,4,3.501,4H15c0.552,0,1,0.448,1,1s-0.448,1-1,1H3.501   C2.673,6,2,6.673,2,7.501v8.998C2,17.326,2.673,18,3.501,18H15c0.552,0,1,0.447,1,1S15.552,20,15,20z"/><path d="M15,20c-0.552,0-1-0.447-1-1V5c0-0.552,0.448-1,1-1s1,0.448,1,1v14C16,19.553,15.552,20,15,20z"/><path d="M13.5,32c-1.508,0-2.841-0.961-3.318-2.392L6.751,19.316c-0.175-0.524,0.108-1.091,0.632-1.265   c0.527-0.176,1.09,0.108,1.265,0.632l3.431,10.292C12.284,29.589,12.855,30,13.5,30c0.465,0,0.895-0.21,1.181-0.576   c0.286-0.366,0.385-0.834,0.272-1.285l-2.224-8.896c-0.134-0.535,0.192-1.078,0.728-1.212c0.537-0.133,1.079,0.19,1.213,0.728   l2.224,8.896c0.263,1.052,0.031,2.146-0.637,3C15.59,31.51,14.585,32,13.5,32z"/></g></svg>