<svg xmlns="http://www.w3.org/2000/svg" xmlns:xlink="http://www.w3.org/1999/xlink" version="1.1" x="0px" y="0px" viewBox="0 0 32 40" style="enable-background:new 0 0 32 32;" xml:space="preserve"><g><path d="M29.503,32H2.497C1.12,32,0,30.88,0,29.503V16c0-0.552,0.448-1,1-1s1,0.448,1,1v13.503C2,29.777,2.223,30,2.497,30h27.006   C29.777,30,30,29.777,30,29.503V16c0-0.552,0.447-1,1-1s1,0.448,1,1v13.503C32,30.88,30.88,32,29.503,32z"/><path d="M23,9c-0.256,0-0.512-0.098-0.707-0.293L16,2.414L9.707,8.707c-0.391,0.391-1.023,0.391-1.414,0s-0.391-1.023,0-1.414l7-7   c0.391-0.391,1.023-0.391,1.414,0l7,7c0.391,0.391,0.391,1.023,0,1.414C23.512,8.902,23.256,9,23,9z"/><path d="M16,24c-0.552,0-1-0.447-1-1V1.182c0-0.552,0.448-1,1-1s1,0.448,1,1V23C17,23.553,16.552,24,16,24z"/></g></svg>