<svg xmlns="http://www.w3.org/2000/svg" xmlns:xlink="http://www.w3.org/1999/xlink" version="1.1" x="0px" y="0px" viewBox="0 0 32 40" style="enable-background:new 0 0 32 32;" xml:space="preserve"><g><path d="M26,9H6C5.448,9,5,8.552,5,8s0.448-1,1-1h20c0.553,0,1,0.448,1,1S26.553,9,26,9z"/><path d="M26,13H6c-0.552,0-1-0.448-1-1s0.448-1,1-1h20c0.553,0,1,0.448,1,1S26.553,13,26,13z"/><path d="M17,17H6c-0.552,0-1-0.448-1-1s0.448-1,1-1h11c0.553,0,1,0.448,1,1S17.553,17,17,17z"/><path d="M10,32c-0.147,0-0.295-0.032-0.433-0.099C9.22,31.734,9,31.385,9,31v-7H2.505C1.124,24,0,22.876,0,21.495V2.505   C0,1.124,1.124,0,2.505,0h26.99C30.876,0,32,1.124,32,2.505v18.99C32,22.876,30.876,24,29.495,24h-9.145l-9.726,7.781   C10.444,31.926,10.223,32,10,32z M2.505,2C2.227,2,2,2.227,2,2.505v18.99C2,21.773,2.227,22,2.505,22H10c0.552,0,1,0.447,1,1v5.919   l8.375-6.7C19.553,22.077,19.772,22,20,22h9.495C29.773,22,30,21.773,30,21.495V2.505C30,2.227,29.773,2,29.495,2H2.505z"/></g></svg>