<svg xmlns="http://www.w3.org/2000/svg" xmlns:xlink="http://www.w3.org/1999/xlink" version="1.1" x="0px" y="0px" viewBox="0 0 32 40" style="enable-background:new 0 0 32 32;" xml:space="preserve"><g><path d="M8,26c-0.288,0-0.562-0.124-0.752-0.342l-7-8c-0.364-0.415-0.322-1.047,0.094-1.411c0.416-0.365,1.048-0.321,1.411,0.094   l6.188,7.072L19.2,8.4c0.332-0.441,0.958-0.531,1.399-0.2c0.442,0.331,0.532,0.958,0.2,1.4l-12,16   c-0.181,0.241-0.461,0.389-0.762,0.399C8.025,26,8.013,26,8,26z"/><path d="M31,13h-6c-0.553,0-1-0.448-1-1s0.447-1,1-1h6c0.553,0,1,0.448,1,1S31.553,13,31,13z"/><path d="M23,23h-6c-0.552,0-1-0.447-1-1s0.448-1,1-1h6c0.553,0,1,0.447,1,1S23.553,23,23,23z"/><path d="M27,18h-6c-0.553,0-1-0.447-1-1c0-0.552,0.447-1,1-1h6c0.553,0,1,0.448,1,1C28,17.553,27.553,18,27,18z"/></g></svg>