<svg xmlns="http://www.w3.org/2000/svg" xmlns:xlink="http://www.w3.org/1999/xlink" version="1.1" x="0px" y="0px" viewBox="0 0 32 40" style="enable-background:new 0 0 32 32;" xml:space="preserve"><g><path d="M20.874,19.334c-1.482,0-2.974-0.373-4.345-1.105c-1.86-0.994-3.984-1.146-5.829-0.418l-3.333,1.314   c-0.306,0.119-0.656,0.083-0.929-0.104C6.164,18.835,6,18.525,6,18.194V2.839c0-0.411,0.251-0.78,0.633-0.93l3.333-1.314   c2.39-0.943,5.126-0.757,7.504,0.514c0,0,0,0,0.001,0c1.858,0.993,3.983,1.144,5.828,0.418l3.3-1.443   c0.309-0.135,0.665-0.105,0.948,0.079C27.83,0.348,28,0.663,28,1v15.355c0,0.397-0.235,0.757-0.6,0.917l-3.333,1.457   C23.042,19.134,21.96,19.334,20.874,19.334z M13.116,15.356c1.481,0,2.979,0.373,4.356,1.108c1.857,0.991,3.983,1.144,5.828,0.417   l2.7-1.181V2.529l-1.933,0.845c-2.425,0.958-5.161,0.771-7.539-0.5c-1.86-0.992-3.984-1.146-5.829-0.417L8,3.52v13.205l1.967-0.775   C10.973,15.553,12.04,15.356,13.116,15.356z"/><path d="M7,32c-0.552,0-1-0.447-1-1V18c0-0.553,0.448-1,1-1s1,0.447,1,1v13C8,31.553,7.552,32,7,32z"/></g></svg>