<svg xmlns="http://www.w3.org/2000/svg" viewBox="0 0 32 40" enable-background="new 0 0 32 32" x="0px" y="0px"><g><path d="M21.502 28h-7.502c-.552 0-1-.447-1-1s.448-1 1-1h7.502c.274 0 .498-.224.498-.498v-4.502c0-.553.447-1 1-1s1 .447 1 1v4.502c0 1.377-1.121 2.498-2.498 2.498zM31 15h-11c-.553 0-1-.448-1-1s.447-1 1-1h11c.553 0 1 .448 1 1s-.447 1-1 1zM31 15c-.256 0-.512-.098-.707-.293l-3-3c-.391-.391-.391-1.023 0-1.414s1.023-.391 1.414 0l3 3c.391.391.391 1.023 0 1.414-.195.195-.451.293-.707.293zM28 18c-.256 0-.512-.098-.707-.293-.391-.391-.391-1.023 0-1.414l3-3c.391-.391 1.023-.391 1.414 0s.391 1.023 0 1.414l-3 3c-.195.195-.451.293-.707.293zM23 8c-.553 0-1-.448-1-1v-4.501c0-.275-.224-.499-.498-.499h-19.007c-.273 0-.495.222-.495.495 0 .552-.448 1-1 1s-1-.448-1-1c0-1.376 1.119-2.495 2.495-2.495h19.007c1.377 0 2.498 1.121 2.498 2.499v4.501c0 .552-.447 1-1 1zM12.502 32c-.21 0-.423-.026-.632-.081l-9.993-2.583c-1.105-.286-1.877-1.283-1.877-2.424v-23.979c0-.552.448-1 1-1l.278.039c-.008-.118.004-.24.04-.359.16-.529.72-.825 1.246-.669l10.654 3.213c1.066.322 1.782 1.285 1.782 2.398v22.94c0 .78-.354 1.502-.971 1.979-.446.346-.98.526-1.527.526zm-10.504-29.138l.002.071v23.979c0 .229.155.431.378.488l9.992 2.583c.209.054.361-.033.435-.09.072-.056.195-.183.195-.398v-22.94c0-.224-.144-.418-.359-.482l-10.643-3.211z"/></g></svg>